<svg xmlns="http://www.w3.org/2000/svg" viewBox="0 0 225 225"><defs><style>.cls-1{fill:#da2627;}.cls-2{fill:#cb2324;}</style></defs><g id="Capa_2" data-name="Capa 2"><g id="Capa_1-2" data-name="Capa 1"><path class="cls-1" d="M0,0V225H225V0ZM17.8,112.37c1.44-5.05,2.51-10.25,4.53-15,.66-1.54,3.83-2,5.85-3L29,95.55c-1.24,4.25-2.79,8.45-3.65,12.77S22.29,114.13,17.8,112.37Zm29,.51H41c.27-2,.51-3.87.86-6.48H28.54c-.72-3.34.39-4.7,3.43-4.61,2.15.07,4.32-.16,6.45,0,3.56.35,5.74-.45,6.87-4.44.41-1.49,3.8-2.13,5.83-3.16l.77,1.26C50.18,101.29,48.47,107.07,46.76,112.88ZM80.28,101c-4.33,3.7-11.35,4.18-13,11.24-.17.72-3.54.68-6.44,1.16,3.19-5.69-.73-7.79-3.51-10.69-1.48-1.54-2-4-3-6L60,94.27c2.61,9,9.38,9.83,16.61,3.24,1.68-1.53,4.09-2.24,6.17-3.33.48.57,1,1.14,1.46,1.7C83,97.62,81.9,99.65,80.28,101Zm11.12,6.86v-3.66c-.43,0-.87,0-.93.11A14.72,14.72,0,0,0,89.06,108c-.61,4.3-2.72,6.15-7.71,4.56,1.65-5.66,3.31-11.39,5.06-17.42h28.35C116.32,105.43,105.49,109.7,91.4,107.88Zm26.09-3.65c.27-2.7,0-5.28.92-7.22.59-1.19,3.14-1.93,4.83-2,8.12-.19,16.25-.08,24.36-.08.18,3.86-1.41,5.07-4.81,4.92-5.4-.23-10.81-.06-17.69-.06l5.9,4.26-7.39,3.86h19.67c.35.59.71,1.18,1.06,1.78-1.21,1.1-2.4,3.13-3.65,3.17-8.8.28-17.61.15-27.74.15C114.87,109.33,116.34,106.47,117.49,104.23Zm72.68,22.32c-2.81-2.53-4.72-2.81-8.08-.7C170,133.5,156.19,136,142.16,136.92a221.56,221.56,0,0,1-25.75-.37c21.94-2,43.5-5.07,63.58-17.61-8.65-5-16.28-10.28-26-11-1,4-2.78,6.61-7.54,4.72-.09-3.15.8-5.52,4.58-5.61l-9.34-2.74c5.45.77,9.1-2.24,9.35-9.09h28.81c.17,6.41-2.63,10.47-9.24,12l15.71,8L202,96.77c-.89,8.86-5.35,16-10.3,21.69,5.67,8.42,11.05,16.43,14.52,21.59C202.44,136.89,196.12,131.92,190.17,126.55Zm18.4-28.84c-.21-.1-.25-.53-.36-.81.24-.08.57-.28.7-.19a2.83,2.83,0,0,1,.55.79C209.14,97.59,208.78,97.81,208.57,97.71Z"/><path class="cls-2" d="M172.7,100.47c-5.61,4.85-11.38,2.93-17,3.27C156.62,99.42,161.63,98.51,172.7,100.47Z"/><path class="cls-1" d="M107.28,102.15l-16.09,2.27c.25-5,4.57-6,15.87-4.12Z"/><rect class="cls-1" x="206.24" y="91.82" width="5.73" height="15.53"/></g></g></svg>