<svg xmlns="http://www.w3.org/2000/svg" viewBox="0 0 360 360"><defs><style>.cls-1{fill:#fcfcfc;}.cls-2{fill:#f2f2f2;}</style></defs><g id="Capa_2" data-name="Capa 2"><g id="Capa_1-2" data-name="Capa 1"><path d="M179.5,360H3.5C0,360,0,360,0,356.5V3.5C0,0,0,0,3.5,0h353C360,0,360,0,360,3.5v353c0,3.49,0,3.5-3.5,3.5Z"/><path class="cls-1" d="M176.67,191.42c0,3.67,0,7.34,0,11-.06,4.67,1,4.55-4.68,4.29a71.24,71.24,0,0,1-43.08-16.39c-24.42-20.23-34-46.4-26.42-77.1,7.74-31.52,29-50.23,60.8-56.85a57.33,57.33,0,0,1,10.93-1c1.51,0,2.5.16,2.48,2.08-.07,9.17,0,18.33,0,27.5,0,1.22-.47,1.73-1.71,1.85a74.3,74.3,0,0,0-7.43.94c-20.77,4.07-36.23,23.71-35.34,44.68,1,24.44,20.26,40.77,39.08,42.35.82.07,1.65.26,2.47.25,2.35,0,3.08,1,3,3.38C176.53,182.75,176.67,187.09,176.67,191.42Z"/><path class="cls-1" d="M211.19,117.42c10,0,20,0,30,0,3.93,0,4,0,4,3.64q0,30.49,0,61c0,3.46-.07,3.51-3.56,3.52-8.33,0-16.66-.08-25,.07-2.46,0-3.07-.71-3-3.09.13-10,.05-20,.06-30,0-3.66.41-3.85-3.78-3.83q-14.74.07-29.5,0c-3.48,0-3.53-.08-3.55-3.57,0-8.16.12-16.33-.07-24.49-.07-2.77.93-3.34,3.43-3.32C190.52,117.48,200.86,117.42,211.19,117.42Z"/><path class="cls-2" d="M198.79,263.14c-2.83,0-5.65,0-8.48,0-1.84,0-1.79,1.1-1,2.29,2.31,3.36,6.68,3.76,11.14,1.16,1.13-.66,1.91-2.36,3.79-.83,3.62,3,3.61,4.41-.55,6.75-6.86,3.87-19.08,3.21-22.28-7.28-1.78-5.81-.88-11.32,3.68-15.57A13.76,13.76,0,0,1,200.85,247c5.62,2.46,7.68,7.42,8.15,13.25.17,2.11-.47,3.06-2.74,2.91-2.48-.16-5,0-7.47,0Z"/><path class="cls-2" d="M138.92,274.63c-5.84,0-10.35-2.52-12.94-7.7s-2.31-10.7,1.39-15.47a13.8,13.8,0,0,1,14.11-5.31,53.05,53.05,0,0,0,8.42.58c3.56.07,4.72.93,3.42,3.94-1.15,2.67-.23,4.55.22,6.83C155.32,266.69,148.46,274.66,138.92,274.63Z"/><path class="cls-2" d="M246.53,248.33c3.49-1.63,6.41-3.14,10-2.29,5.23,1.26,8.63,4.59,8.94,9.91.3,5.14,0,10.31.11,15.46.07,3.14-2.14,2.25-3.78,2.36s-3.3.34-3.18-2.36a120.62,120.62,0,0,0,0-12.47c-.29-4.94-3.83-7.3-8.13-5.73a5.53,5.53,0,0,0-3.89,5.74c0,4-.2,8,.06,12,.22,3.31-1.83,2.82-3.82,2.89s-3.41.07-3.37-2.76q.24-16.46,0-32.92c0-2.84,1.4-2.81,3.38-2.75s4.08-.39,3.8,2.91C246.32,241.41,246.53,244.58,246.53,248.33Z"/><path class="cls-2" d="M107.51,274.61c-8.4-.06-14.44-6.1-14.42-14.41a14.53,14.53,0,0,1,14.6-14.47,14.82,14.82,0,0,1,14.83,14.9C122.32,268.65,115.86,274.67,107.51,274.61Z"/><path class="cls-2" d="M225.57,274.61c-7.25-.06-12.4-4-14.21-10.61a14.23,14.23,0,0,1,6.22-16c5.44-3.32,13.09-2.74,17.7,1.38.95.85,2.49,1.9.79,3.11-1.49,1.07-1.93,4.43-4.93,2.65-.57-.33-1-.88-1.59-1.2-3.54-2-7.6-1.4-9.9,1.49a7.57,7.57,0,0,0,0,9.67c2.41,2.95,6.26,3.44,9.93,1.53,1.17-.61,1.8-3,4-1.08,4.05,3.49,4,4.7-.73,7.27A13,13,0,0,1,225.57,274.61Z"/><path class="cls-1" d="M90.67,255.1c0,5.31-.2,10.63.07,15.93.17,3.43-2,2.61-3.84,2.74-2.05.15-3.35,0-3.31-2.77.16-10.95.2-21.91,0-32.86-.06-3.41,2-2.61,3.84-2.74,2-.14,3.42,0,3.31,2.77C90.51,243.81,90.67,249.46,90.67,255.1Z"/><path class="cls-2" d="M128.59,275.57c1.63-.28,2.85.15,3.49,2.5.93,3.44,3.66,5,7.2,4.92,3.33-.06,5.54-1.8,6.88-4.82.37-.84,0-2.29,1.25-2.44a16.24,16.24,0,0,1,5.43,0c1.55.34.84,2,.65,3-1.84,9.51-13.31,14.36-22,9.39a14.1,14.1,0,0,1-6.61-8.38C123.71,276,124.14,275.51,128.59,275.57Z"/><path class="cls-2" d="M163.23,260.55c0,3.66-.06,7.32,0,11,.07,3.16-2.23,2.19-3.85,2.28s-3.39.42-3.36-2.28c.1-7.49.08-15,0-22.46,0-3.08,2.17-2.25,3.84-2.34s3.41-.28,3.35,2.34C163.16,252.9,163.23,256.72,163.23,260.55Z"/><path class="cls-2" d="M159.81,234.57a4.72,4.72,0,0,1,4.41,5,4.47,4.47,0,0,1-5.05,4.17,4.66,4.66,0,0,1-4.26-4.61A4.82,4.82,0,0,1,159.81,234.57Z"/><path d="M195,257.41c-1.33,0-2.72,0-4.08,0-.84,0-2.45,0-2.45-.87a3.53,3.53,0,0,1,1.3-2.5c3.29-3.17,9.08-2.4,11.05,1.48.52,1,.62,1.9-1,1.89h-5S195,257.4,195,257.41Z"/><path d="M139.27,267.79a7.37,7.37,0,0,1-7.76-7.36,7.68,7.68,0,0,1,7.39-7.85,7.83,7.83,0,0,1,7.79,7.51A7.43,7.43,0,0,1,139.27,267.79Z"/><path d="M115.49,260.33a7.6,7.6,0,0,1-7.79,7.46,7.35,7.35,0,0,1-7.54-7.58,7.83,7.83,0,0,1,7.67-7.61A8,8,0,0,1,115.49,260.33Z"/><path class="cls-2" d="M177.11,256.43c0,4.76-.07,9.52,0,14.28.08,4.13-2.22,2.8-3.82,3s-3.37.55-3.33-3c.09-9.73.07-19.48,0-29.22,0-4,2.15-2.93,3.81-3s3.38-.37,3.32,3C177,246.47,177.11,251.45,177.11,256.43Z"/><path class="cls-2" d="M173.33,246.77c2.1,0,6-.06,6.29-.06,2,0,1.37,1.9,1.42,3.24s.39,2.57-1.17,2.55c-4.28-.06-8.8-.06-13.09,0-1.71-.1-1.22-1.57-1.26-3s-.38-2.68,1.38-2.65C169.1,246.85,171.14,246.79,173.33,246.77Z"/><rect class="cls-2" x="179.74" y="247.67" width="0.8" height="4.21" rx="0.4"/><rect class="cls-2" x="180.06" y="249.04" width="0.16" height="0.41"/><rect class="cls-2" x="165.58" y="247.23" width="0.84" height="4.77" rx="0.42"/><rect x="164.84" y="245.87" width="0.74" height="7.19"/><rect class="cls-2" x="170.91" y="272.95" width="3.76" height="0.83" rx="0.42"/><rect class="cls-2" x="157.6" y="273.05" width="3.76" height="0.83" rx="0.42"/><rect class="cls-2" x="170.91" y="272.95" width="3.76" height="0.83" rx="0.42"/><path class="cls-2" d="M179.94,247.23h.4a.76.76,0,0,1,.76.76v2.92a1.16,1.16,0,0,1-1.16,1.16h0a.76.76,0,0,1-.76-.76V248A.76.76,0,0,1,179.94,247.23Z"/><rect class="cls-2" x="170.91" y="238.39" width="3.76" height="0.83" rx="0.42"/></g></g></svg>