<svg xmlns="http://www.w3.org/2000/svg" viewBox="0 0 360 360"><defs><style>.cls-1{fill:#fcfcfc;}.cls-2{fill:#f2f2f2;}</style></defs><g id="Capa_2" data-name="Capa 2"><g id="Capa_1-2" data-name="Capa 1"><path d="M179.5,360H3.5C0,360,0,360,0,356.5V3.5C0,0,0,0,3.5,0h353C360,0,360,0,360,3.5v353c0,3.49,0,3.5-3.5,3.5Z"/><path class="cls-1" d="M176.75,191.39c0,3.67,0,7.34,0,11-.06,4.67.95,4.55-4.68,4.29A71.2,71.2,0,0,1,129,190.29c-24.42-20.23-34-46.4-26.43-77.1,7.75-31.52,29-50.23,60.81-56.85a58.15,58.15,0,0,1,10.93-1c1.51,0,2.5.16,2.48,2.08-.07,9.17,0,18.33,0,27.5,0,1.22-.48,1.73-1.71,1.85a73.57,73.57,0,0,0-7.43.94c-20.77,4.07-36.23,23.71-35.34,44.68,1,24.44,20.25,40.77,39.07,42.35.83.07,1.66.26,2.48.25,2.35,0,3.08,1,3,3.38C176.62,182.72,176.75,187.06,176.75,191.39Z"/><path class="cls-1" d="M211.28,117.39c10,0,20,0,30,0,3.94,0,4,0,4,3.63q0,30.51,0,61c0,3.46-.07,3.51-3.56,3.52-8.33,0-16.67-.08-25,.07-2.45,0-3.06-.71-3-3.09.13-10,.05-20,.06-30,0-3.66.41-3.85-3.78-3.83q-14.76.07-29.5,0c-3.48,0-3.53-.08-3.55-3.57,0-8.16.11-16.33-.08-24.49-.06-2.77.94-3.34,3.44-3.32C190.61,117.45,201,117.39,211.28,117.39Z"/><path class="cls-2" d="M198.87,263.12c-2.82,0-5.65-.05-8.47,0-1.85,0-1.79,1.1-1,2.29,2.31,3.36,6.68,3.76,11.14,1.16,1.12-.65,1.91-2.36,3.79-.83,3.61,3,3.61,4.41-.55,6.75-6.86,3.87-19.08,3.21-22.29-7.28-1.77-5.81-.87-11.32,3.69-15.57A13.74,13.74,0,0,1,200.93,247c5.63,2.46,7.69,7.42,8.16,13.25.17,2.11-.47,3.06-2.74,2.91-2.48-.16-5,0-7.48,0Z"/><path class="cls-2" d="M139,274.6c-5.84,0-10.35-2.52-12.94-7.7s-2.31-10.7,1.39-15.47a13.79,13.79,0,0,1,14.11-5.31,53.05,53.05,0,0,0,8.42.58c3.56.08,4.72.93,3.42,3.94-1.16,2.67-.23,4.55.22,6.83C155.4,266.66,148.55,274.63,139,274.6Z"/><path class="cls-2" d="M246.62,248.3c3.49-1.63,6.41-3.14,10-2.29,5.22,1.26,8.63,4.59,8.94,9.92.3,5.13,0,10.3.11,15.45.07,3.14-2.14,2.25-3.78,2.36s-3.3.34-3.18-2.36a120.62,120.62,0,0,0,0-12.47c-.29-4.94-3.83-7.3-8.14-5.73a5.54,5.54,0,0,0-3.88,5.74c0,4-.2,8,.06,12,.22,3.31-1.84,2.82-3.82,2.89s-3.41.07-3.37-2.76q.24-16.45,0-32.92c0-2.84,1.4-2.81,3.38-2.75s4.08-.39,3.8,2.91C246.41,241.38,246.62,244.55,246.62,248.3Z"/><path class="cls-2" d="M107.6,274.58c-8.4-.06-14.44-6.09-14.43-14.41a14.54,14.54,0,0,1,14.61-14.47,14.82,14.82,0,0,1,14.83,14.9C122.41,268.62,116,274.64,107.6,274.58Z"/><path class="cls-2" d="M225.66,274.59c-7.25-.07-12.4-4-14.21-10.62a14.23,14.23,0,0,1,6.22-16c5.44-3.32,13.09-2.74,17.7,1.38.95.85,2.49,1.9.79,3.11-1.49,1.07-1.93,4.43-4.94,2.65-.56-.33-1-.88-1.58-1.2-3.54-2-7.6-1.4-9.9,1.49a7.56,7.56,0,0,0,0,9.67c2.41,2.95,6.26,3.44,9.92,1.53,1.18-.61,1.81-3,4-1.08,4.05,3.49,4,4.7-.73,7.27A13,13,0,0,1,225.66,274.59Z"/><path class="cls-1" d="M90.75,255.07c0,5.31-.2,10.63.07,15.93.18,3.43-2,2.61-3.83,2.74-2,.15-3.35,0-3.31-2.77.16-11,.2-21.91,0-32.86-.06-3.41,2-2.61,3.84-2.74,2-.14,3.42,0,3.31,2.77C90.6,243.78,90.75,249.43,90.75,255.07Z"/><path class="cls-2" d="M128.67,275.54c1.64-.28,2.86.15,3.5,2.5.92,3.44,3.66,5,7.2,4.92,3.33-.06,5.54-1.8,6.88-4.82.37-.84,0-2.28,1.25-2.44a16,16,0,0,1,5.43,0c1.55.33.84,2,.65,3-1.84,9.51-13.31,14.36-22,9.39a14.1,14.1,0,0,1-6.61-8.38C123.8,275.92,124.23,275.48,128.67,275.54Z"/><path class="cls-2" d="M163.32,260.52c0,3.66-.06,7.32,0,11,.07,3.16-2.23,2.19-3.85,2.28s-3.39.43-3.36-2.28c.1-7.49.08-15,0-22.46,0-3.08,2.17-2.25,3.84-2.34s3.41-.28,3.34,2.34C163.25,252.87,163.32,256.69,163.32,260.52Z"/><path class="cls-2" d="M159.9,234.54a4.72,4.72,0,0,1,4.41,5,4.48,4.48,0,0,1-5.06,4.17,4.65,4.65,0,0,1-4.25-4.61A4.81,4.81,0,0,1,159.9,234.54Z"/><path d="M195.1,257.38c-1.33,0-2.72,0-4.08,0-.84,0-2.45.05-2.45-.87a3.53,3.53,0,0,1,1.3-2.5c3.29-3.17,9.08-2.4,11,1.48.52,1,.62,1.9-1,1.89H195.1Z"/><path d="M139.35,267.76a7.38,7.38,0,0,1-7.76-7.36,7.68,7.68,0,0,1,7.4-7.84,7.81,7.81,0,0,1,7.79,7.5A7.43,7.43,0,0,1,139.35,267.76Z"/><path d="M115.58,260.3a7.61,7.61,0,0,1-7.79,7.46,7.35,7.35,0,0,1-7.54-7.58,7.82,7.82,0,0,1,7.66-7.61A8,8,0,0,1,115.58,260.3Z"/><path class="cls-2" d="M175.67,256.4c0,4.76,0,9.53,0,14.28.05,4.13-1.75,2.8-3,3s-2.65.55-2.62-3q.1-14.6,0-29.22c0-4,1.69-2.93,3-3s2.66-.37,2.61,3C175.61,246.44,175.67,251.42,175.67,256.4Z"/><path class="cls-2" d="M173.14,246.74c2,0,5.84-.06,6.07-.05,1.93,0,1.32,1.9,1.37,3.24s.37,2.56-1.12,2.54c-4.14-.05-8.5-.06-12.64,0-1.64-.11-1.17-1.58-1.21-3.06s-.37-2.68,1.33-2.65C169.06,246.82,171,246.76,173.14,246.74Z"/><rect class="cls-2" x="179.83" y="247.64" width="0.8" height="4.21" rx="0.4"/><rect class="cls-2" x="180.15" y="249.01" width="0.16" height="0.41"/><rect class="cls-2" x="165.66" y="247.2" width="0.84" height="4.77" rx="0.42"/><rect x="164.93" y="245.84" width="0.74" height="7.19"/><rect class="cls-2" x="170.99" y="272.92" width="3.76" height="0.83" rx="0.42"/><rect class="cls-2" x="157.69" y="273.02" width="3.76" height="0.83" rx="0.42"/><rect class="cls-2" x="170.99" y="272.92" width="3.76" height="0.83" rx="0.42"/><path class="cls-2" d="M179.73,247.2h.4a.33.33,0,0,1,.33.33v3.77a.73.73,0,0,1-.73.73h0a.33.33,0,0,1-.33-.33v-4.17a.33.33,0,0,1,.33-.33Z"/><rect class="cls-2" x="170.99" y="238.36" width="3.76" height="0.83" rx="0.42"/></g></g></svg>