<svg xmlns="http://www.w3.org/2000/svg" viewBox="0 0 1006.97 252.03"><defs><style>.cls-1{fill:#ededed;}.cls-2{fill:#3b4048;}.cls-3{fill:#3c4149;}.cls-4{fill:#3d4249;}.cls-5{fill:#3c4148;}.cls-6{fill:#3ec0c6;}.cls-7{fill:#3abfc4;}.cls-8{fill:#39bec4;}.cls-9{fill:#38bec4;}</style></defs><g id="Capa_2" data-name="Capa 2"><g id="Capa_1-2" data-name="Capa 1"><path class="cls-1" d="M243.08,92.26c8.34,0,16.3-.11,24.24.15.86,0,2.3,2.09,2.39,3.29,1.16,14.52,2.08,29.07,3.16,43.59a34.45,34.45,0,0,0,1.27,5.5l1.29-.09c2.2-17.23,4.4-34.47,6.7-52.44,8.19,0,16.3-.2,24.37.22,1.13,0,2.76,3,3,4.74,1.31,8.16,2.17,16.39,3.29,24.57a168.7,168.7,0,0,0,4.38,22.92,57.11,57.11,0,0,0,1.51-7.78c.5-8.45.71-16.91,1.11-25.36.26-5.46.51-10.93,1.12-16.36a4.17,4.17,0,0,1,2.85-2.84c6.32-.27,12.66-.07,19-.17,3,0,3.19,1.79,3,3.94-.7,8.75-1.39,17.49-2.2,26.23-.86,9.21-1.94,18.4-2.76,27.62-1.11,12.53-2,25.07-3.12,37.6-.28,3.22-1.77,4.87-5.5,4.72-7.65-.3-15.34-.38-23,0-4.06.22-5.61-1.39-6.26-5q-3-16.59-6.22-33.16c-.35-1.86-1-3.66-1.48-5.49l-1.3,0c-1.06,6.22-2.1,12.45-3.17,18.67-1.23,7.16-2.59,14.31-3.67,21.49-.42,2.77-1.73,3.46-4.33,3.42-8.16-.13-16.34-.28-24.49,0-4.17.16-5.15-2-5.47-5.31-1.7-17.45-3.3-34.9-5.08-52.34C246.34,120.72,244.69,106.79,243.08,92.26Z"/><path class="cls-1" d="M771,118.78c7.56-2,14.41-4.35,21.46-5.36a14.38,14.38,0,0,1,14.05,5.84c2.31,3.12,4.22,1,6.25-.44,6.5-4.71,13.8-6.7,21.65-5.18,10.36,2,14.09,6.5,14.34,18.41.38,18.82.06,37.66.15,56.49,0,2.86-1.07,3.78-3.83,3.72-6.33-.13-12.67-.18-19,0-3.29.11-4.33-1-4.3-4.3.15-14,.11-28,0-42,0-6.32-1.59-8.09-6.32-7.76-3.65.26-5.75,1.69-5.7,5.89.16,14-.13,28,.17,42,.1,4.67-1,6.61-6,6.21a124.3,124.3,0,0,0-16.49,0c-3.86.21-4.77-1.26-4.73-4.89.18-14.5,0-29,.13-43.5,0-3.82-.72-6-5.19-5.78-4.06.17-6,1.27-5.95,5.82.23,14.5,0,29,.16,43.5.05,3.69-1,5-4.77,4.85-6.15-.29-12.33-.17-18.49,0-2.73.06-3.87-.8-3.86-3.69q.12-34.74,0-69.49c0-3.2,1.27-4,4.16-3.9,4.83.16,9.68.23,14.5,0C767.22,115,770.37,115.34,771,118.78Z"/><path class="cls-1" d="M453.17,115.27c7.59,0,15-.12,22.47.19.78,0,1.94,2.59,2.1,4.07,1.13,10.85,2.06,21.73,3.07,32.6.05.45.33.89,1.34,1.44.88-5.74,1.83-11.47,2.64-17.22.78-5.57,1.39-11.16,2.14-16.73.4-3,1.67-4.72,5.21-4.48,4.65.32,9.35-.16,14,.23,1.38.11,3.54,1.83,3.76,3.09,1.55,8.62,2.67,17.31,3.94,26a32.33,32.33,0,0,0,2.38,9.32,56.71,56.71,0,0,0,1.55-7.2c.79-9.24,1.52-18.49,2-27.74.15-2.93,1.28-3.69,4-3.63,5.5.13,11,.1,16.5,0,2.41,0,3.95.55,3.56,3.34-1.92,13.91-3.93,27.81-5.73,41.74-1.22,9.35-2.34,18.72-3.1,28.11-.26,3.13-1.32,4-4.22,3.89-7-.15-14-.31-21,0-3.94.21-5.31-1.45-5.89-4.92-1.26-7.5-2.66-15-4.08-22.45a7.51,7.51,0,0,0-2.58-4.36c-2,10.34-3.94,20.68-6,31.61-8.55,0-17.17.14-25.78-.16-1.19,0-3.15-2.08-3.33-3.39-1.9-14.09-3.47-28.22-5.23-42.33-1.17-9.35-2.52-18.67-3.76-28A20.25,20.25,0,0,1,453.17,115.27Z"/><path class="cls-1" d="M603.84,155.86c0-5.54-.17-10.68.14-15.79.06-1,1.91-2.69,3-2.72q12.48-.33,25,0c1,0,2.74,1.9,2.75,2.93q.27,24.48,0,49c0,1-1.82,2.73-2.89,2.81a56.63,56.63,0,0,1-12.95-.06c-2.16-.34-4-2.74-5.17-3.62-5.6,1.68-10.77,4-16.14,4.69-18.92,2.34-29.29-11.36-32.69-25.51-4.52-18.81-4.53-37.62,2.22-55.76,4.72-12.66,12.08-19.37,26.73-20.43,10.2-.74,20.54-1,30.59,2.61,3.28,1.16,5,2.34,4.42,5.78-1,6.37-1.9,12.76-3.27,19-.21,1-2.81,2.18-4.11,2-4.89-.73-9.7-2-14.54-3.06-8.41-1.85-15.28,2.51-15.85,11.16a216.6,216.6,0,0,0,0,29.71c.66,9.07,9.8,13.85,18.33,10.15,4.7-2,1.85-6.48,2.2-9.8.08-.77-2.5-2-4-2.7C606.76,155.87,605.66,156,603.84,155.86Z"/><path class="cls-1" d="M367,155.93c.86-8.32.74-14.43,2.24-20.11,3-11.34,9.64-19.6,22-21.66,12.72-2.11,25.52-2.37,34.21,8.76a41.66,41.66,0,0,1,7.87,19.94c1.24,10.6,1.1,21.41-2.43,32-3.29,9.91-9.52,16.05-19.44,17.8-9.61,1.7-19.26,2-28.53-2.72-6.09-3.1-10.27-7.61-12-13.91C369.07,168.78,368.06,161.24,367,155.93Zm27.78-2.2c0,4.15.06,8.31,0,12.46s1.49,6.83,5.86,7c4.63.17,6-3.09,6.09-6.85.19-8.3.11-16.61,0-24.91,0-4-2.13-6.22-6.15-6.16-3.79,0-5.72,2.29-5.8,6C394.75,145.43,394.82,149.58,394.82,153.73Z"/><path class="cls-1" d="M724.6,174.07c-.61,5.66-1.17,11.38-1.92,17.07-.1.74-1.15,1.93-1.76,1.92-5.46,0-11,.28-16.33-.74-2.92-.57-5.37-3.51-8.77-5.89-.6.46-1.86,1.37-3.06,2.36-6.87,5.6-14.89,5.91-22.63,3.38-8.87-2.9-13.7-14.32-12.16-24.24,1.62-10.47,7.12-16.84,17.46-19.05,4.2-.89,8.38-2,12.62-2.58,2.46-.35,4.92-.23,4.7-3.61-.19-3.05-1.21-5.93-5-5.4-6.7,1-13.34,2.29-20,3.49-1.13.2-2.24.54-3.65.9-.77-3.86-1.59-7.55-2.23-11.28s-1.08-7.51-1.69-11.78c13.95-3.21,27.79-7.15,42.39-4.61,12.55,2.18,15.82,9.08,16.11,20.3.26,10.11-.63,20.24-.84,30.36C717.69,172.06,717.82,172.07,724.6,174.07Zm-29.81-7.91c-1.24-1.64-2.29-4.44-3.75-4.68-4.43-.74-8.15,3-8.23,7.17-.07,3.62,1.11,6.33,5.15,6.47C691.72,175.24,693.76,172.19,694.79,166.16Z"/><path class="cls-1" d="M899.57,161.22c-1.42,7.13,2.12,12.16,8.59,11.88,6.25-.27,12.44-1.56,18.66-2.38,1.09-.15,2.2-.2,3.61-.33.78,6.52,1.53,12.7,2.32,19.31-14.32,3.39-28.32,6.86-42.73.7-9-3.85-13.51-11.27-16-19.85-3.89-13.19-3.8-26.72,1.25-39.53,4.31-10.94,13.58-16.81,25.15-17.57A64.47,64.47,0,0,1,920,115.57c8.66,2.16,15.53,11.83,15.79,20.91.21,6.93-.08,13.88.09,20.81.08,3.11-1.1,4-4.09,4-9-.14-18-.05-27-.05Zm5-13c3.55-.24,7.93,1.51,7.35-4.86-.44-4.94-2.18-7.2-6.74-7.15-4.17.05-7.33,3.56-7.29,8.27C897.91,149.86,902.13,147.65,904.55,148.23Z"/><path class="cls-1" d="M957.52,190.78c.5-7.21,1-14.07,1.46-21.2,8.78.26,16.8,5.88,27,2-2.73-2.15-4.3-3.79-6.2-4.82-5.08-2.75-10.4-5.06-15.46-7.86-8.53-4.73-12.58-15.63-10.26-26.94a21.78,21.78,0,0,1,18.86-17.83c12.13-1.73,20.24-1.07,32.55,2.73-.58,6-1.06,12-1.81,18-.31,2.49-1.7,3.58-4.59,3a161.08,161.08,0,0,0-16.64-2.56c-1.39-.14-2.95,1.32-4.43,2.05,1,1.14,1.82,2.67,3.09,3.37,5.36,3,10.84,5.72,16.31,8.49s8.11,7.94,9,13.61a39.64,39.64,0,0,1,0,13.87c-2.32,11.25-9.37,16.45-21,16.49-4.5,0-9,.28-13.49-.1S963.06,191.72,957.52,190.78Z"/><path class="cls-2" d="M225.07,209.47c.06,5.46-4.68,10.47-9.85,10.41a10.18,10.18,0,0,1-10-9.8c-.22-5.29,4.53-10.07,10-10.11C221.14,199.93,225,203.68,225.07,209.47Z"/><path class="cls-3" d="M165.72,248.48c-5.61,0-10.07-4.37-9.9-9.6A10.21,10.21,0,0,1,166.11,229c5.63.13,10,4.38,9.92,9.68A9.9,9.9,0,0,1,165.72,248.48Z"/><path class="cls-3" d="M30.07,175.16A9.83,9.83,0,0,1,20.42,185a10,10,0,0,1-9.86-9.72c-.1-5.95,4-10.35,9.57-10.33A9.91,9.91,0,0,1,30.07,175.16Z"/><path class="cls-4" d="M108.2,232.26a10.61,10.61,0,0,1,10.4,10c.21,5-4.72,9.8-10,9.75a10.45,10.45,0,0,1-10.41-10C98.06,237.15,103,232.33,108.2,232.26Z"/><path class="cls-3" d="M179.29,10.21a10.33,10.33,0,0,1,10.33,9.92A10.08,10.08,0,0,1,179.32,30c-4.93-.09-9.71-5-9.75-10.08A9.48,9.48,0,0,1,179.29,10.21Z"/><path class="cls-3" d="M10.46,109.9c5.79.45,9.74,4.89,9.35,10.54-.36,5.42-5.48,9.94-10.67,9.43S-.37,124.48,0,119.41C.48,113.66,5.06,109.48,10.46,109.9Z"/><path class="cls-3" d="M225,64.48a10,10,0,0,1-.2-20c5.13,0,10.07,5.11,10,10.36A9.5,9.5,0,0,1,225,64.48Z"/><path class="cls-3" d="M27.5,56.22a9.77,9.77,0,0,1,9.54,10,10.43,10.43,0,0,1-10.42,10A10.15,10.15,0,0,1,17,66.62,10.49,10.49,0,0,1,27.5,56.22Z"/><path class="cls-3" d="M56.08,229.17a10.5,10.5,0,0,1-10.2-10.7,9.81,9.81,0,0,1,10.27-9.26,10.46,10.46,0,0,1,9.67,10.1C65.78,224.71,61.23,229.31,56.08,229.17Z"/><path class="cls-3" d="M77.82,26.23a10.32,10.32,0,0,1-10,10.21,9.64,9.64,0,0,1-10-9.54c-.09-5.49,4.87-10.37,10.53-10.35C73.26,16.57,77.82,21.22,77.82,26.23Z"/><path class="cls-5" d="M112.81,10a9.79,9.79,0,0,1,10-10,10,10,0,0,1,10.06,9.45c.15,5.77-3.86,10-9.77,10.18A9.66,9.66,0,0,1,112.81,10Z"/><path class="cls-6" d="M65.62,82.51a7.3,7.3,0,1,1-7.45-7.1A7.24,7.24,0,0,1,65.62,82.51Z"/><path class="cls-7" d="M86.62,195.1a7.17,7.17,0,0,1-7.37,7.13A7.81,7.81,0,0,1,72,194.71c.09-3.79,3.8-7.35,7.52-7.22A7.68,7.68,0,0,1,86.62,195.1Z"/><path class="cls-8" d="M164.83,207.63a7.22,7.22,0,0,1-7,7.49,7.5,7.5,0,0,1-7.63-7c-.19-3.59,4-7.77,7.77-7.66A7.45,7.45,0,0,1,164.83,207.63Z"/><path class="cls-9" d="M132.37,38.42A7.64,7.64,0,0,1,125,45.63c-4.17.08-7.12-2.9-7.14-7.18A6.94,6.94,0,0,1,125,31.23,7.47,7.47,0,0,1,132.37,38.42Z"/><path class="cls-9" d="M51,120.25a7,7,0,0,1-7.4,7c-4-.11-6.89-3.26-6.81-7.55.07-3.76,3.83-7.44,7.36-7.2A7.69,7.69,0,0,1,51,120.25Z"/><path class="cls-8" d="M52.43,154.43a7.52,7.52,0,0,1,7.4,7.09,7.18,7.18,0,0,1-6.89,7.5A7.27,7.27,0,0,1,45.56,162,7.12,7.12,0,0,1,52.43,154.43Z"/><path class="cls-8" d="M168.32,41.22a7.44,7.44,0,0,1,7.49,7.1,7.36,7.36,0,0,1-7.06,7.44c-3.62,0-7.44-3.54-7.68-7.18S164.45,41.34,168.32,41.22Z"/><path class="cls-9" d="M194.71,195.23a6.86,6.86,0,0,1-7-7.27,7.3,7.3,0,0,1,7.31-7.15,7.06,7.06,0,0,1,7,7.36A7,7,0,0,1,194.71,195.23Z"/><path class="cls-9" d="M115.86,217.24c-4.45-.1-7.12-2.8-7-7.14a6.94,6.94,0,0,1,7.44-6.88c4,.22,7.5,3.68,7.31,7.29A7.37,7.37,0,0,1,115.86,217.24Z"/><path class="cls-8" d="M88.17,46.21a7,7,0,0,1,6.65,7.64c-.34,4-3.44,6.55-7.86,6.39a7.12,7.12,0,0,1-6.71-7.53A7.39,7.39,0,0,1,88.17,46.21Z"/><path class="cls-9" d="M208.82,74c.11,4.29-2.73,7.17-7.11,7.2s-7.1-2.83-7.13-7.2c0-4.07,2.66-6.78,6.8-6.82C205.86,67.15,208.71,69.77,208.82,74Z"/></g></g></svg>